<svg xmlns="http://www.w3.org/2000/svg" xmlns:xlink="http://www.w3.org/1999/xlink" viewBox="0 0 308.59 286.27"><defs><style>.cls-1{isolation:isolate;}.cls-2,.cls-3{fill:#fff;}.cls-3,.cls-9{opacity:0.4;mix-blend-mode:overlay;}.cls-4{fill:#e86a2e;}.cls-5{fill:#ef8f42;}.cls-6{fill:url(#Degradado_sin_nombre_16);}.cls-7{fill:url(#Degradado_sin_nombre_16-2);}.cls-8{fill:#d8dade;}.cls-10,.cls-9{fill:#edeef0;}.cls-11{fill:#f7f8f8;}</style><linearGradient id="Degradado_sin_nombre_16" x1="107.87" y1="136.71" x2="107.87" y2="69.01" gradientUnits="userSpaceOnUse"><stop offset="0" stop-color="#f8c03a"/><stop offset="1" stop-color="#ef8f42"/></linearGradient><linearGradient id="Degradado_sin_nombre_16-2" x1="162.67" y1="28.19" x2="218.04" y2="61" xlink:href="#Degradado_sin_nombre_16"/></defs><title>Asset 7</title><g class="cls-1"><g id="Layer_2" data-name="Layer 2"><g id="Capa_1" data-name="Capa 1"><polygon class="cls-2" points="207.31 140.46 247.99 164.01 154.84 216.44 154.85 170.79 207.31 140.46"/><polygon class="cls-2" points="102.03 140.1 154.85 170.79 154.84 216.42 60.99 163.65 102.03 140.1"/><polygon class="cls-2" points="154.85 0.56 154.85 47.67 102.03 78.72 102.03 140.1 60.99 163.65 60.99 54.81 154.85 0.56"/><polygon class="cls-2" points="247.63 55.52 207.66 78 154.85 47.67 154.85 0.56 247.63 55.52"/><polygon class="cls-2" points="154.85 109.05 154.84 170.78 102.03 140.1 102.03 78.72 154.85 109.05"/><polygon class="cls-3" points="109 27.06 154.85 0.56 247.63 55.52 109 27.06"/><polygon class="cls-3" points="201.55 190.15 154.85 216.42 61.01 163.67 201.55 190.15"/><polygon class="cls-2" points="207.66 78 154.85 109.05 102.03 78.72 154.85 47.67 207.66 78"/><polyline class="cls-2" points="154.85 109.05 154.85 109.58 154.85 170.78 207.31 140.46 207.66 78"/><polygon class="cls-4" points="207.58 140.34 248.39 163.97 154.94 216.57 154.95 170.78 207.58 140.34"/><polygon class="cls-5" points="101.96 139.99 154.95 170.78 154.94 216.55 60.79 163.62 101.96 139.99"/><polygon class="cls-6" points="154.95 0 154.95 47.26 101.96 78.41 101.96 139.99 60.79 163.62 60.79 54.42 154.95 0"/><polygon class="cls-7" points="248.03 55.13 207.94 77.69 154.95 47.26 154.95 0 248.03 55.13"/><polygon class="cls-8" points="154.95 108.84 154.94 170.77 101.96 139.99 101.96 78.41 154.95 108.84"/><polygon class="cls-9" points="108.95 26.58 154.95 0 248.03 55.13 108.95 26.58"/><polygon class="cls-9" points="201.8 190.19 154.95 216.55 60.81 163.63 201.8 190.19"/><polygon class="cls-10" points="207.94 77.69 154.95 108.84 101.96 78.41 154.95 47.26 207.94 77.69"/><polyline class="cls-11" points="154.95 108.84 154.95 109.36 154.95 170.77 207.58 140.34 207.94 77.69"/><path class="cls-2" d="M30,280l1.57,1.4a18.21,18.21,0,0,1-12.7,4.91,18.19,18.19,0,0,1-13.36-5.52,18.92,18.92,0,0,1,0-26.71,18.2,18.2,0,0,1,13.36-5.53,18.26,18.26,0,0,1,12.7,4.91L30,254.85a16.22,16.22,0,0,0-11.13-4.22A16.15,16.15,0,0,0,7,255.54a16.78,16.78,0,0,0,0,23.72,16.12,16.12,0,0,0,11.85,4.92A16.22,16.22,0,0,0,30,280Z"/><path class="cls-2" d="M69.08,254A18.93,18.93,0,0,1,55.7,286.27a18.93,18.93,0,1,1,0-37.85A18.26,18.26,0,0,1,69.08,254ZM55.7,250.54a16.82,16.82,0,1,0,11.88,28.7,16.81,16.81,0,0,0-11.88-28.7Z"/><path class="cls-2" d="M90.14,265.41a15.58,15.58,0,0,1-6.23-3.6,7.81,7.81,0,0,1,11.07-11,6.58,6.58,0,0,1,1.75,2.75l-1.87.74a5.78,5.78,0,0,0-9.47-2.07,5.76,5.76,0,0,0,0,8.13,15.38,15.38,0,0,0,4.33,2.83,18.46,18.46,0,0,1,7.45,4.45,10.47,10.47,0,0,1,3.2,7.7,10.91,10.91,0,0,1-18.65,7.73,10.43,10.43,0,0,1-3.06-5.95l2-.72a8.49,8.49,0,0,0,2.55,5.24,8.89,8.89,0,0,0,12.57-12.57A16.91,16.91,0,0,0,90.14,265.41Z"/><path class="cls-2" d="M107.36,249l13.85,24L135,249h2.38l-.09.16v36.72h-2.08V252.71l-14,24.3-14.06-24.3v33.12h-2.07V249.11L105,249Z"/><path class="cls-2" d="M146.87,249v36.88H144.8V249Z"/><path class="cls-2" d="M183.69,280l1.56,1.4a18.88,18.88,0,1,1,0-27.94l-1.56,1.43a16.78,16.78,0,1,0,0,25.11Z"/><path class="cls-2" d="M199.12,272.58v11.81h-4.78V247.5h10.47a12.78,12.78,0,0,1,7.52,3.67,12.54,12.54,0,0,1-8.86,21.41Zm0-20.28v15.49h4.35a7.75,7.75,0,0,0,0-15.49Z"/><path class="cls-2" d="M226,247.5v36.89H221.2V247.5Z"/><path class="cls-2" d="M231.07,284.39l11.59-20.13L233,247.5h5.49l6.92,12,7-12h5.48l-9.7,16.76,11.64,20.13H254.3L245.41,269l-8.86,15.38Z"/><path class="cls-2" d="M284.3,247.5v4.78H269.2v11.27h15.1v4.77H269.2v11.27h15.1v4.8H264.42V247.5Z"/><path class="cls-2" d="M290.64,284.39V247.5h4.77v32.09h13.18v4.8Z"/></g></g></g></svg>