<svg xmlns="http://www.w3.org/2000/svg" xmlns:xlink="http://www.w3.org/1999/xlink" viewBox="0 0 468.1 216.57"><defs><style>.cls-1{isolation:isolate;}.cls-2,.cls-3{fill:#fff;}.cls-3,.cls-9{opacity:0.4;mix-blend-mode:overlay;}.cls-4{fill:#e86a2e;}.cls-5{fill:#ef8f42;}.cls-6{fill:url(#Degradado_sin_nombre_16);}.cls-7{fill:url(#Degradado_sin_nombre_16-2);}.cls-8{fill:#d8dade;}.cls-10,.cls-9{fill:#edeef0;}.cls-11{fill:#f7f8f8;}</style><linearGradient id="Degradado_sin_nombre_16" x1="47.08" y1="136.71" x2="47.08" y2="69.01" gradientUnits="userSpaceOnUse"><stop offset="0" stop-color="#f8c03a"/><stop offset="1" stop-color="#ef8f42"/></linearGradient><linearGradient id="Degradado_sin_nombre_16-2" x1="101.88" y1="28.19" x2="157.25" y2="61" xlink:href="#Degradado_sin_nombre_16"/></defs><title>Asset 8</title><g class="cls-1"><g id="Layer_2" data-name="Layer 2"><g id="Capa_1" data-name="Capa 1"><polygon class="cls-2" points="146.62 140.24 187.3 163.79 94.15 216.22 94.16 170.57 146.62 140.24"/><polygon class="cls-2" points="41.34 139.88 94.16 170.57 94.15 216.2 0.3 163.44 41.34 139.88"/><polygon class="cls-2" points="94.16 0.35 94.16 47.45 41.34 78.5 41.34 139.88 0.3 163.44 0.3 54.59 94.16 0.35"/><polygon class="cls-2" points="186.94 55.31 146.97 77.79 94.16 47.45 94.16 0.35 186.94 55.31"/><polygon class="cls-2" points="94.16 108.84 94.14 170.57 41.34 139.88 41.34 78.5 94.16 108.84"/><polygon class="cls-3" points="48.31 26.84 94.16 0.35 186.94 55.3 48.31 26.84"/><polygon class="cls-3" points="140.86 189.93 94.16 216.2 0.32 163.45 140.86 189.93"/><polygon class="cls-2" points="146.97 77.79 94.16 108.84 41.34 78.5 94.16 47.45 146.97 77.79"/><polyline class="cls-2" points="94.16 108.84 94.16 109.36 94.16 170.57 146.62 140.24 146.97 77.79"/><polygon class="cls-4" points="146.79 140.34 187.6 163.97 94.15 216.57 94.16 170.78 146.79 140.34"/><polygon class="cls-5" points="41.17 139.99 94.16 170.78 94.15 216.55 0 163.62 41.17 139.99"/><polygon class="cls-6" points="94.16 0 94.16 47.26 41.17 78.41 41.17 139.99 0 163.62 0 54.42 94.16 0"/><polygon class="cls-7" points="187.24 55.13 147.15 77.69 94.16 47.26 94.16 0 187.24 55.13"/><polygon class="cls-8" points="94.16 108.84 94.15 170.77 41.17 139.99 41.17 78.41 94.16 108.84"/><polygon class="cls-9" points="48.16 26.58 94.16 0 187.24 55.13 48.16 26.58"/><polygon class="cls-9" points="141.01 190.19 94.16 216.55 0.02 163.63 141.01 190.19"/><polygon class="cls-10" points="147.15 77.69 94.16 108.84 41.17 78.41 94.16 47.26 147.15 77.69"/><polyline class="cls-11" points="94.16 108.84 94.16 109.36 94.16 170.77 146.79 140.34 147.15 77.69"/><path class="cls-2" d="M189.52,121.35l1.57,1.41A18.89,18.89,0,0,1,165,95.44a18.9,18.9,0,0,1,26.07-.62l-1.57,1.43a16.77,16.77,0,0,0-23,24.41,16.77,16.77,0,0,0,23,.69Z"/><path class="cls-2" d="M228.58,95.36a18.9,18.9,0,1,1-13.38-5.55A18.24,18.24,0,0,1,228.58,95.36ZM215.2,91.94a16.81,16.81,0,0,0-11.88,28.7,16.81,16.81,0,1,0,23.76-23.78A16.19,16.19,0,0,0,215.2,91.94Z"/><path class="cls-2" d="M249.64,106.81a15.65,15.65,0,0,1-6.22-3.6,7.81,7.81,0,0,1,11.06-11,6.46,6.46,0,0,1,1.75,2.74l-1.86.74A5.77,5.77,0,0,0,253,93.6a5.75,5.75,0,0,0-8.12,8.13,15.46,15.46,0,0,0,4.34,2.84,18.14,18.14,0,0,1,7.44,4.45,10.91,10.91,0,1,1-18.51,9.47l2-.71a8.9,8.9,0,1,0,15.12-7.33A16.75,16.75,0,0,0,249.64,106.81Z"/><path class="cls-2" d="M266.86,90.35l13.86,24,13.83-24h2.37l-.09.16v36.72h-2.07V94.1l-14,24.3L266.65,94.1v33.13h-2.07V90.51l-.09-.16Z"/><path class="cls-2" d="M306.38,90.35v36.88H304.3V90.35Z"/><path class="cls-2" d="M343.19,121.35l1.57,1.41A18.88,18.88,0,0,1,318.7,95.44a18.89,18.89,0,0,1,26.06-.62l-1.57,1.43a16.77,16.77,0,0,0-23,24.41,16.77,16.77,0,0,0,23,.69Z"/><path class="cls-2" d="M358.62,114v11.8h-4.77V88.9h10.46a12.74,12.74,0,0,1,7.52,3.66A12.55,12.55,0,0,1,363,114Zm0-20.29v15.5H363a7.75,7.75,0,0,0,0-15.5Z"/><path class="cls-2" d="M385.48,88.9v36.88H380.7V88.9Z"/><path class="cls-2" d="M390.57,125.78l11.6-20.12L392.51,88.9H398l6.92,12,7-12h5.49l-9.71,16.76,11.65,20.12h-5.49l-8.9-15.37-8.85,15.37Z"/><path class="cls-2" d="M443.8,88.9v4.77H428.7v11.27h15.1v4.78H428.7V121h15.1v4.79H423.93V88.9Z"/><path class="cls-2" d="M450.14,125.78V88.9h4.77V121H468.1v4.79Z"/></g></g></g></svg>